HIERARCHY
ROOT Hips
{
	OFFSET 62.890800 8.863803 43.568401
	CHANNELS 6 Xposition Yposition Zposition Zrotation Xrotation Yrotation
	JOINT Chest
	{
		OFFSET -0.160400 1.630001 7.806301
		CHANNELS 6 Xposition Yposition Zposition Zrotation Xrotation Yrotation
		JOINT Chest2
		{
			OFFSET 0.000000 0.000000 3.197998
			CHANNELS 6 Xposition Yposition Zposition Zrotation Xrotation Yrotation
			JOINT Neck
			{
				OFFSET 0.000000 0.000001 7.440701
				CHANNELS 6 Xposition Yposition Zposition Zrotation Xrotation Yrotation
				JOINT Head
				{
					OFFSET 0.000000 0.000000 2.173901
					CHANNELS 6 Xposition Yposition Zposition Zrotation Xrotation Yrotation
					End Site
					{
						OFFSET 0.000000 0.000001 10.420303
					}
				}
			}
			JOINT LeftCollar
			{
				OFFSET 2.426399 -1.880099 4.759399
				CHANNELS 6 Xposition Yposition Zposition Zrotation Xrotation Yrotation
				JOINT LeftShoulder
				{
					OFFSET 4.420197 0.000000 0.000000
					CHANNELS 6 Xposition Yposition Zposition Zrotation Xrotation Yrotation
					JOINT LeftElbow
					{
						OFFSET 0.000000 -0.000001 -10.347099
						CHANNELS 6 Xposition Yposition Zposition Zrotation Xrotation Yrotation
						JOINT LeftWrist
						{
							OFFSET 0.000000 -0.000001 -12.496300
							CHANNELS 6 Xposition Yposition Zposition Zrotation Xrotation Yrotation
							End Site
							{
								OFFSET 0.000000 0.000000 -2.173901
							}
						}
					}
				}
			}
			JOINT RightCollar
			{
				OFFSET -2.781502 -1.903799 5.072601
				CHANNELS 6 Xposition Yposition Zposition Zrotation Xrotation Yrotation
				JOINT RightShoulder
				{
					OFFSET -4.012100 0.000000 0.000000
					CHANNELS 6 Xposition Yposition Zposition Zrotation Xrotation Yrotation
					JOINT RightElbow
					{
						OFFSET 0.000000 -0.000001 -10.346600
						CHANNELS 6 Xposition Yposition Zposition Zrotation Xrotation Yrotation
						JOINT RightWrist
						{
							OFFSET 0.000000 -0.000001 -12.562599
							CHANNELS 6 Xposition Yposition Zposition Zrotation Xrotation Yrotation
							End Site
							{
								OFFSET 0.000000 0.000000 -2.173901
							}
						}
					}
				}
			}
		}
	}
	JOINT LeftHip
	{
		OFFSET 2.047997 -0.047200 -2.693199
		CHANNELS 6 Xposition Yposition Zposition Zrotation Xrotation Yrotation
		JOINT LeftKnee
		{
			OFFSET 0.000000 -0.000001 -18.824400
			CHANNELS 6 Xposition Yposition Zposition Zrotation Xrotation Yrotation
			JOINT LeftAnkle
			{
				OFFSET 0.000000 -0.000002 -19.078199
				CHANNELS 6 Xposition Yposition Zposition Zrotation Xrotation Yrotation
				End Site
				{
					OFFSET 0.000000 -9.342100 0.000001
				}
			}
		}
	}
	JOINT RightHip
	{
		OFFSET -2.129898 -0.022300 -2.538300
		CHANNELS 6 Xposition Yposition Zposition Zrotation Xrotation Yrotation
		JOINT RightKnee
		{
			OFFSET 0.000000 -0.000001 -18.644600
			CHANNELS 6 Xposition Yposition Zposition Zrotation Xrotation Yrotation
			JOINT RightAnkle
			{
				OFFSET 0.000000 -0.000002 -18.801399
				CHANNELS 6 Xposition Yposition Zposition Zrotation Xrotation Yrotation
				End Site
				{
					OFFSET 0.000000 -8.914600 0.000001
				}
			}
		}
	}
}
MOTION
Frames: 8
Frame Time: 0.041667
-23.537216 -46.131901 32.302753 -366.320093 9.794706 -44.546617 -0.160401 1.630000 7.806302 12.792414 0.646493 -24.961328 -0.000006 -0.000010 3.198002 -11.936935 -11.668909 -1.235704 -0.000007 0.000008 7.440704 -48.937745 -10.444897 10.334829 -0.000005 -0.000001 2.173906 -2.352030 0.534250 -8.265741 2.426399 -1.880099 4.759399 -159.196861 185.533797 -180.480468 4.420192 0.000013 0.000001 -63.790941 -4.260543 -153.891894 -0.000005 0.000001 -10.347092 386.863062 -11.930441 0.952901 -0.000013 -0.000008 -12.496296 7.097600 155.847541 215.939709 -2.781503 -1.903802 5.072604 -144.393218 -197.219732 151.091393 -4.012098 0.000002 -0.000001 22.690751 19.460529 443.260098 -0.000003 -0.000003 -10.346598 9.161214 0.458691 -1.407593 -0.000000 -0.000001 -12.562590 1163.191160 -178.579790 175.064060 2.047998 -0.047199 -2.693199 -11.514849 -4.558564 -6.527487 -0.000001 -0.000000 -18.824398 201.408386 168.454936 -171.693020 -0.000002 -0.000003 -19.078201 2.223519 28.286947 25.611135 -2.129897 -0.022299 -2.538307 -516.570813 -6.268693 -115.733772 -0.000003 -0.000005 -18.644596 391.074721 173.987512 91.303298 0.000000 -0.000001 -18.801395 -30.549476 -16.750786 -46.852400
-23.373413 -46.207306 32.474449 -366.244142 9.216104 -44.282961 -0.160401 1.629995 7.806306 12.329711 1.029001 -24.558802 0.000011 -0.000001 3.197997 -11.045908 -11.726599 -1.162883 -0.000008 0.000009 7.440696 -48.379131 -10.498519 10.884069 -0.000008 -0.000002 2.173907 -2.237636 0.543579 -8.280778 2.426397 -1.880090 4.759397 -159.282020 185.309193 -180.127115 4.420194 0.000014 0.000003 -61.584776 -4.850585 -153.898724 -0.000005 -0.000000 -10.347092 387.302708 -11.106211 0.939906 -0.000004 0.000001 -12.496316 9.388151 155.769991 214.731544 -2.781506 -1.903797 5.072604 -144.776870 -196.986358 151.012081 -4.012096 0.000000 -0.000001 21.025496 19.974721 443.820146 -0.000001 -0.000003 -10.346601 7.784577 0.366927 -1.486832 -0.000004 -0.000006 -12.562597 1162.598628 -178.450003 175.486698 2.047997 -0.047207 -2.693189 -12.044842 -4.085016 -6.311421 -0.000002 -0.000001 -18.824400 201.839398 168.658886 -171.876820 -0.000003 -0.000003 -19.078199 2.031143 28.329535 25.111955 -2.129895 -0.022307 -2.538297 -517.136025 -6.332466 -114.967137 -0.000006 -0.000002 -18.644596 391.315143 174.393622 92.049462 0.000001 -0.000001 -18.801397 -31.053458 -16.812297 -47.410365
-23.206718 -46.282902 32.653652 -366.163108 8.689765 -43.853728 -0.160400 1.630004 7.806307 11.892382 1.321215 -24.249548 0.000010 0.000002 3.198001 -10.067158 -11.700120 -1.033418 -0.000008 0.000012 7.440701 -48.001784 -10.569000 11.380416 -0.000006 0.000002 2.173906 -2.184867 0.483293 -8.214054 2.426391 -1.880089 4.759403 -159.588476 185.128480 -179.797558 4.420196 0.000003 -0.000000 -59.416779 -5.459098 -153.800479 0.000000 0.000006 -10.347090 387.551272 -10.381761 0.881024 -0.000001 0.000001 -12.496305 11.757448 155.793623 213.720786 -2.781506 -1.903793 5.072609 -145.308504 -196.691157 150.948506 -4.012104 0.000002 0.000001 19.449659 20.431104 444.361042 0.000003 -0.000005 -10.346606 6.409133 0.305087 -1.543958 -0.000008 -0.000004 -12.562599 1162.060409 -178.318467 175.901454 2.047998 -0.047199 -2.693191 -12.885928 -3.522038 -6.292748 0.000007 0.000007 -18.824398 202.291297 168.945931 -171.976254 -0.000002 0.000003 -19.078201 2.096487 28.235094 24.986637 -2.129895 -0.022295 -2.538300 -517.644628 -6.298564 -114.027549 -0.000001 -0.000002 -18.644592 391.569718 174.736210 92.833889 -0.000004 -0.000000 -18.801401 -31.524434 -16.860947 -47.959966
-23.035820 -46.360104 32.835152 -366.077485 8.224958 -43.387458 -0.160400 1.630002 7.806307 11.483192 1.537164 -23.922577 -0.000001 0.000001 3.197999 -9.168701 -11.666385 -0.913647 0.000000 0.000005 7.440703 -47.639282 -10.647146 11.900246 -0.000001 0.000000 2.173902 -2.326523 0.319233 -7.623164 2.426407 -1.880088 4.759395 -159.933606 184.906622 -179.446241 4.420197 0.000008 -0.000005 -57.297952 -6.040666 -153.647906 0.000003 0.000006 -10.347091 387.677439 -9.606479 0.803082 -0.000001 0.000001 -12.496307 14.137971 155.789826 212.934494 -2.781497 -1.903799 5.072606 -145.823897 -196.435243 150.897402 -4.012097 0.000001 0.000008 17.972644 20.793264 444.881366 0.000004 0.000001 -10.346599 5.014400 0.270518 -1.559778 -0.000001 -0.000004 -12.562596 1161.537599 -178.242679 176.349679 2.047998 -0.047201 -2.693197 -13.751649 -2.978053 -6.316659 -0.000001 0.000003 -18.824398 202.729071 169.236187 -172.057588 -0.000001 -0.000003 -19.078201 2.209759 28.085538 24.998737 -2.129896 -0.022300 -2.538301 -518.117605 -6.214514 -113.064670 -0.000002 -0.000006 -18.644598 391.831888 175.066764 93.643437 0.000001 0.000001 -18.801399 -31.989505 -16.900326 -48.519181
-22.860519 -46.439701 33.017555 -365.984485 7.795204 -42.905575 -0.160398 1.630002 7.806302 11.076859 1.688907 -23.551935 0.000006 -0.000006 3.198000 -8.349791 -11.586598 -0.803233 -0.000006 0.000013 7.440701 -47.289809 -10.713547 12.399202 -0.000003 0.000000 2.173904 -2.299935 0.198445 -7.740291 2.426407 -1.880087 4.759398 -160.356080 184.665024 -179.137161 4.420194 -0.000003 -0.000001 -55.144704 -6.636929 -153.410543 -0.000004 -0.000001 -10.347103 387.789318 -8.904538 0.707869 0.000002 -0.000005 -12.496302 16.547052 155.841517 211.895445 -2.781501 -1.903793 5.072598 -146.335464 -196.187089 150.884657 -4.012095 0.000007 -0.000000 16.606977 21.088894 445.373003 0.000003 -0.000002 -10.346595 3.549877 0.231528 -1.597574 -0.000000 -0.000012 -12.562598 1161.048339 -178.131402 176.823612 2.048000 -0.047200 -2.693193 -14.727237 -2.415262 -6.365832 -0.000002 0.000004 -18.824396 203.170725 169.556414 -172.101643 -0.000001 -0.000006 -19.078199 2.677639 25.487611 33.574345 -2.129897 -0.022301 -2.538299 -518.579599 -6.105521 -112.097133 -0.000003 0.000003 -18.644598 392.103129 175.397714 94.470901 0.000007 -0.000002 -18.801395 -32.454375 -16.933545 -49.078775
-22.681015 -46.520508 33.200447 -365.889436 7.415359 -42.410489 -0.160396 1.629999 7.806306 10.693406 1.784084 -23.129765 0.000014 0.000007 3.197999 -7.613967 -11.521158 -0.704698 -0.000010 0.000005 7.440699 -46.967027 -10.743898 12.899565 -0.000010 0.000001 2.173903 -2.385571 0.029024 -7.453000 2.426401 -1.880102 4.759400 -160.745388 184.304103 -178.915439 4.420196 0.000001 -0.000010 -53.110209 -7.293136 -153.149288 0.000000 -0.000003 -10.347090 387.969662 -8.226977 0.627845 0.000004 -0.000004 -12.496304 18.796875 155.958586 210.717224 -2.781501 -1.903805 5.072595 -146.864176 -195.963646 150.841053 -4.012101 -0.000000 -0.000008 15.348518 21.340562 445.877344 0.000003 -0.000006 -10.346598 2.055771 0.196745 -1.621486 -0.000000 -0.000006 -12.562596 1160.595689 -178.010330 177.269268 2.047998 -0.047198 -2.693196 -15.729772 -1.866264 -6.426615 0.000001 0.000005 -18.824398 203.625711 169.882459 -172.134127 0.000002 0.000003 -19.078197 2.901718 25.387383 33.372246 -2.129897 -0.022301 -2.538299 -519.015147 -5.967619 -111.134978 -0.000002 -0.000005 -18.644596 392.387647 175.761367 95.317230 0.000001 -0.000002 -18.801395 -32.950366 -16.959211 -49.662664
-22.497826 -46.602505 33.381752 -365.805480 7.065116 -41.898788 -0.160399 1.630002 7.806306 10.329633 1.844239 -22.673590 0.000001 0.000006 3.198006 -6.944573 -11.304099 -0.617913 -0.000004 0.000003 7.440699 -46.690067 -10.853327 13.282176 -0.000005 -0.000007 2.173904 -2.482130 -0.149050 -7.142666 2.426403 -1.880099 4.759392 -161.189992 184.133909 -178.632997 4.420195 -0.000005 -0.000001 -51.087185 -7.853883 -152.788190 0.000003 0.000002 -10.347096 388.095228 -7.612551 0.540311 -0.000009 -0.000002 -12.496295 20.946326 156.081666 209.581527 -2.781502 -1.903792 5.072603 -147.473483 -195.619145 150.894424 -4.012105 -0.000000 -0.000006 14.217402 21.598397 446.373817 -0.000002 -0.000002 -10.346598 0.505402 0.164312 -1.639303 -0.000002 -0.000005 -12.562604 1160.407722 -177.558731 176.782480 2.047996 -0.047200 -2.693196 -16.775177 -1.303265 -6.498268 -0.000002 0.000006 -18.824398 204.089836 170.216920 -172.152773 -0.000000 -0.000004 -19.078203 3.163303 25.280731 33.185915 -2.129898 -0.022301 -2.538299 -519.425013 -5.823088 -110.168165 -0.000000 -0.000001 -18.644596 392.689432 176.129432 96.159529 -0.000007 -0.000002 -18.801397 -33.467691 -16.988277 -50.220598
-22.311913 -46.685101 33.561050 -365.721796 6.740410 -41.366949 -0.160403 1.630002 7.806300 9.976044 1.865583 -22.189469 0.000004 -0.000003 3.197995 -6.331027 -11.222264 -0.536012 0.000001 0.000012 7.440709 -46.424085 -10.838134 13.742154 -0.000005 -0.000001 2.173908 -2.674491 -0.343251 -6.843050 2.426401 -1.880101 4.759403 -161.681574 183.794353 -178.406454 4.420193 0.000003 -0.000003 -48.990133 -8.420550 -152.314844 -0.000002 -0.000001 -10.347097 388.192326 -7.178582 0.411668 0.000003 0.000005 -12.496294 23.016440 156.223242 208.502139 -2.781501 -1.903795 5.072600 -148.329593 -195.531418 151.710741 -4.012097 0.000006 0.000004 13.730556 21.631255 446.050804 -0.000002 -0.000006 -10.346590 -1.127027 0.133649 -1.645986 0.000000 -0.000000 -12.562593 1160.032335 -177.411199 177.146639 2.047995 -0.047201 -2.693192 -17.849723 -0.735908 -6.585807 0.000000 0.000009 -18.824400 204.547705 170.551422 -172.160205 -0.000001 -0.000000 -19.078199 3.456773 25.163885 33.012258 -2.129899 -0.022297 -2.538301 -519.815590 -5.667983 -109.197390 -0.000008 0.000002 -18.644590 393.005533 176.497020 96.983782 -0.000003 -0.000003 -18.801397 -33.982162 -17.005286 -50.701403
